<svg width="36" height="36" viewBox="0 0 36 36" fill="none" xmlns="http://www.w3.org/2000/svg">
<g clip-path="url(#clip0_488_421)">
<path d="M17.0064 12.9672L22.7736 9.51121C19.5984 7.84801 16.2936 6.42241 12.8808 5.24881C12.6288 5.16241 12.2616 5.11201 12.06 5.22721C11.4408 5.57281 10.8792 6.01201 10.4976 6.27121L13.7016 9.56881C14.76 10.6632 15.8256 11.7504 17.0064 12.9672Z" fill="#57E1D9"/>
<path d="M18.9936 32.3784L19.2312 32.4864C20.5992 31.7664 22.4352 31.4568 22.608 29.5344C24.3 23.8248 25.0704 17.6112 27.3816 12.1896C29.3832 10.1952 32.0544 9.0648 34.2576 7.3152C36.9216 5.4792 36.4896 3.6576 33.336 3.528C30.1392 3.3192 27.0648 4.6224 24.4368 6.408C18.8352 10.0224 13.248 13.644 7.6608 17.28C6.6672 17.928 6.5088 17.9424 5.6232 17.1144C4.5144 16.0776 3.4272 15.012 2.3184 13.968C2.0232 13.6944 1.7496 13.2264 1.2528 13.5792C0.748799 13.9392 -0.0792015 14.0256 0.00719854 14.9544C0.295199 17.9136 0.460799 20.8872 0.907199 23.8248C1.2528 26.1216 1.9944 26.4312 4.1976 25.7616C17.496 21.564 21.456 8.37361 18.9936 32.3784Z" fill="#6CFFF6"/>
<path d="M0.0719994 15.6168C0.323999 18.36 0.496799 21.1104 0.914399 23.8248C1.26 26.1216 2.0016 26.4312 4.2048 25.7616C10.26 23.8536 14.3784 20.0736 16.8336 18.792C16.8984 18.756 11.1528 21.78 6.4728 20.8368C2.484 20.0448 0.0647994 15.5664 0.0719994 15.6168Z" fill="#57E1D9"/>
</g>
<defs>
<clipPath id="clip0_488_421">
<rect width="36" height="36" fill="white"/>
</clipPath>
</defs>
</svg>
