<svg width="36" height="36" viewBox="0 0 36 36" fill="none" xmlns="http://www.w3.org/2000/svg">
<g clip-path="url(#clip0_488_61)">
<path d="M24.0696 36H11.9304C11.196 36 10.5768 35.4456 10.4976 34.7112L7.5672 7.28641C7.4736 6.43681 8.1432 5.69521 9 5.69521H27C27.8568 5.69521 28.5192 6.43681 28.4328 7.28641L25.5024 34.7112C25.4232 35.4456 24.804 36 24.0696 36Z" fill="#FFD1E2"/>
<path d="M22.9104 36H11.9304C11.196 36 10.5768 35.4456 10.4976 34.7112L7.84081 9.8568C7.84081 9.8568 9.8352 20.9304 13.5936 26.3664C19.656 35.1216 22.9032 36 22.9032 36H22.9104Z" fill="#D3A3B7"/>
<path d="M28.908 2.62801H27.8784V1.86481C27.8784 1.46881 27.5544 1.14481 27.1584 1.14481H8.84159C8.44559 1.14481 8.12159 1.46881 8.12159 1.86481V2.62801H7.09199C6.69599 2.62801 6.37199 2.95201 6.37199 3.34801V6.85441C6.37199 7.25041 6.69599 7.57441 7.09199 7.57441H28.9008C29.2968 7.57441 29.6208 7.25041 29.6208 6.85441V3.34801C29.6208 2.95201 29.2968 2.62801 28.9008 2.62801H28.908Z" fill="#FF80A1"/>
<path d="M26.892 25.7256L28.332 12.7872C28.3824 12.3624 28.044 11.988 27.6192 11.988H8.388C7.956 11.988 7.6248 12.3624 7.6752 12.7872L9.1152 25.7256C9.1584 26.0928 9.4608 26.3664 9.828 26.3664H26.172C26.5392 26.3664 26.8488 26.0928 26.8848 25.7256H26.892Z" fill="#FF80A1"/>
<path d="M8.3376 11.988C8.2368 12.0096 8.064 12.0168 7.8768 12.204C7.6968 12.3768 7.6608 12.6432 7.6752 12.7872L9.1152 25.7256C9.1584 26.0928 9.4608 26.3664 9.828 26.3664H13.5936C13.5936 26.3664 13.3488 26.2368 12.9816 25.5312C10.9008 21.5712 8.3448 11.988 8.3376 11.988Z" fill="#D16F8E"/>
</g>
<defs>
<clipPath id="clip0_488_61">
<rect width="36" height="36" fill="white"/>
</clipPath>
</defs>
</svg>
