<svg width="36" height="36" viewBox="0 0 36 36" fill="none" xmlns="http://www.w3.org/2000/svg">
<g clip-path="url(#clip0_488_398)">
<path d="M35.7768 31.6368C34.452 25.6392 30.3048 21.2112 24.8544 19.2024C27.7416 16.92 29.4336 13.2336 28.8144 9.2016C28.0944 4.5216 24.12 0.770401 19.3176 0.223201C12.6864 -0.532799 7.06319 4.5144 7.06319 10.8576C7.06319 14.2344 8.66159 17.2368 11.1528 19.2024C5.69519 21.2112 1.54799 25.6392 0.223189 31.6368C-0.259211 33.8184 1.53359 35.856 3.80879 35.856H32.184C34.4592 35.856 36.2592 33.8184 35.7696 31.6368H35.7768Z" fill="#2FA1FF"/>
<path d="M35.7768 31.6368C35.7336 31.4424 35.6904 31.248 35.64 31.0536C35.6184 30.9816 29.0664 33.0048 20.1096 28.0584C11.7792 23.4576 10.7136 19.3752 10.656 19.3968C5.44319 21.4848 1.51199 25.8192 0.223189 31.6368C-0.259211 33.8184 1.53359 35.856 3.80879 35.856H32.184C34.4592 35.856 36.2592 33.8184 35.7696 31.6368H35.7768Z" fill="#2E89BC"/>
</g>
<defs>
<clipPath id="clip0_488_398">
<rect width="36" height="36" fill="white"/>
</clipPath>
</defs>
</svg>
