<svg width="36" height="36" viewBox="0 0 36 36" fill="none" xmlns="http://www.w3.org/2000/svg">
<g clip-path="url(#clip0_488_339)">
<path d="M27.5112 30.5784C29.8728 33.4368 26.0568 36.2016 23.9976 33.5808L18.6192 26.7408L21.4128 23.184L27.5184 30.5856L27.5112 30.5784ZM16.668 17.4312L13.8384 20.664L11.2752 17.4096C4.93199 20.4696 -4.0968 8.07841 1.98 2.93761C6.9768 -1.28879 17.2872 7.90561 14.508 14.8032L16.668 17.424V17.4312Z" fill="#DDC15E"/>
<path d="M20.3904 13.7304C20.4912 14.0544 20.7864 14.4864 21.1896 14.94L7.2792 30.924C6.4224 31.9032 6.588 33.4224 7.5816 34.2504L7.7832 34.416C8.6688 35.1504 10.0368 35.0568 10.7424 34.1424L23.8824 17.1864C24.2784 17.4312 24.6456 17.6184 24.948 17.7048C26.9208 18.2952 28.62 17.2512 30.132 15.4944L35.0208 9.18001C35.5248 8.53201 36.2592 7.89841 35.9568 7.02721C35.676 6.21361 34.6248 5.77441 33.984 6.47281L29.5992 11.8728C28.7496 12.9672 27.4392 11.664 28.296 10.7928C29.5416 9.29521 31.464 6.85441 32.7096 5.35681C33.5664 4.27681 31.8672 3.03841 31.0464 3.97441L26.6328 9.41041C25.7976 10.4184 24.3 9.12241 25.1064 8.14321L29.376 2.88721C30.1248 1.80721 28.3392 0.504005 27.5832 1.39681L22.248 7.81921C20.0664 10.224 19.8 11.844 20.376 13.7448L20.3904 13.7304Z" fill="#FFDB5E"/>
</g>
<defs>
<clipPath id="clip0_488_339">
<rect width="36" height="36" fill="white"/>
</clipPath>
</defs>
</svg>
