<svg width="36" height="36" viewBox="0 0 36 36" fill="none" xmlns="http://www.w3.org/2000/svg">
<path d="M35.9712 22.7952C35.5248 20.7576 34.1136 19.2528 32.2632 18.576C33.2424 17.7984 33.8184 16.5528 33.6096 15.1776C33.3648 13.5864 32.0184 12.312 30.384 12.132C28.1304 11.8728 26.2224 13.5936 26.2224 15.7464C26.2224 16.8912 26.7624 17.9136 27.612 18.576C25.7616 19.26 24.3504 20.7576 23.904 22.7952C23.7384 23.5368 24.3504 24.228 25.1208 24.228H34.7544C35.5248 24.228 36.1368 23.5368 35.9712 22.7952Z" fill="#FE733C"/>
<path d="M12.096 22.7952C11.6496 20.7576 10.2384 19.2528 8.38801 18.576C9.36721 17.7984 9.94321 16.5528 9.73441 15.1776C9.48961 13.5864 8.14321 12.312 6.50881 12.132C4.25521 11.8728 2.34721 13.5936 2.34721 15.7464C2.34721 16.8912 2.88721 17.9136 3.73681 18.576C1.88641 19.26 0.475206 20.7576 0.028806 22.7952C-0.136794 23.5368 0.475206 24.228 1.24561 24.228H10.8792C11.6496 24.228 12.2616 23.5368 12.096 22.7952Z" fill="#FE733C"/>
<path d="M31.608 28.4328C30.5928 23.8392 27.4248 20.4552 23.2488 18.9144C25.4592 17.172 26.7552 14.3496 26.28 11.2608C25.7328 7.6752 22.6872 4.8096 19.0152 4.392C13.9464 3.816 9.6408 7.6824 9.6408 12.5352C9.6408 15.12 10.8648 17.4168 12.7656 18.9216C8.5896 20.4624 5.4216 23.8464 4.3992 28.44C4.032 30.1104 5.4072 31.6728 7.1424 31.6728H28.8576C30.6 31.6728 31.9752 30.1104 31.6008 28.44L31.608 28.4328Z" fill="#FFCB9A"/>
<path d="M31.608 28.4328C31.572 28.2816 31.536 28.1304 31.5 27.9864C31.4856 27.9288 26.4672 29.484 19.6128 25.6968C13.2336 22.176 12.42 19.0512 12.3768 19.0656C8.388 20.664 5.3784 23.9832 4.392 28.4328C4.0248 30.1032 5.4 31.6656 7.1352 31.6656H28.8504C30.5928 31.6656 31.968 30.1032 31.5936 28.4328H31.608Z" fill="#FFAE6D"/>
</svg>
