<svg width="20" height="19" viewBox="0 0 20 19" fill="none" xmlns="http://www.w3.org/2000/svg">
<path d="M13.9359 11.9817L13.4425 12.4723C13.4425 12.4723 12.2696 13.6385 9.0684 10.4553C5.86717 7.27226 7.03996 6.10612 7.03996 6.10612L7.35066 5.79716C8.11615 5.03608 8.1883 3.81415 7.52042 2.9221L6.1544 1.09734C5.32784 -0.00675267 3.73066 -0.152602 2.78328 0.7894L1.08288 2.48015C0.613121 2.94724 0.298326 3.55272 0.336503 4.22441C0.434165 5.94281 1.21164 9.64009 5.55001 13.9538C10.1506 18.5283 14.4674 18.7101 16.2327 18.5455C16.791 18.4935 17.2766 18.2092 17.6679 17.82L19.2069 16.2899C20.2457 15.257 19.9528 13.4861 18.6236 12.7637L16.5539 11.6385C15.6812 11.1641 14.618 11.3034 13.9359 11.9817Z" fill="#8F8F8F"/>
</svg>
