<svg width="16" height="17" viewBox="0 0 16 17" fill="none" xmlns="http://www.w3.org/2000/svg">
<path d="M7.99992 14.8095C11.6818 14.8095 14.6666 11.8247 14.6666 8.14286C14.6666 4.46096 11.6818 1.4762 7.99992 1.4762C4.31802 1.4762 1.33325 4.46096 1.33325 8.14286C1.33325 11.8247 4.31802 14.8095 7.99992 14.8095Z" fill="#A8A8A8"/>
<path fill-rule="evenodd" clip-rule="evenodd" d="M8 4.9762C8.27613 4.9762 8.5 5.20006 8.5 5.4762V7.93573L10.0202 9.456C10.2155 9.65126 10.2155 9.9678 10.0202 10.1631C9.82493 10.3583 9.5084 10.3583 9.31313 10.1631L7.64647 8.4964C7.55267 8.40266 7.5 8.27546 7.5 8.14286V5.4762C7.5 5.20006 7.72387 4.9762 8 4.9762Z" fill="#F5F5F5"/>
</svg>
