<svg width="22" height="21" viewBox="0 0 22 21" fill="none" xmlns="http://www.w3.org/2000/svg">
<g clip-path="url(#clip0_135_483)">
<path fill-rule="evenodd" clip-rule="evenodd" d="M18.7478 18.9H5.01009C4.27069 18.9 3.72469 18.1681 4.00356 17.4951C5.29751 14.3829 8.33739 12.6 11.8784 12.6C15.4205 12.6 18.4603 14.3829 19.7543 17.4951C20.0332 18.1681 19.4872 18.9 18.7478 18.9ZM7.6044 6.29998C7.6044 3.98368 9.52235 2.09998 11.8784 2.09998C14.2355 2.09998 16.1524 3.98368 16.1524 6.29998C16.1524 8.61628 14.2355 10.5 11.8784 10.5C9.52235 10.5 7.6044 8.61628 7.6044 6.29998ZM22.2994 18.5178C21.5226 14.9908 19.0929 12.3879 15.8949 11.2066C17.5895 9.86576 18.5779 7.69748 18.2146 5.32343C17.7936 2.56928 15.4621 0.365376 12.6477 0.0440757C8.76266 -0.400074 5.4674 2.57143 5.4674 6.29998C5.4674 8.28448 6.40341 10.0527 7.86298 11.2066C4.6639 12.3879 2.2352 14.9908 1.45734 18.5178C1.17525 19.7998 2.22666 21 3.56121 21H20.1956C21.5312 21 22.5826 19.7998 22.2994 18.5178Z" fill="#A8A8A8"/>
</g>
<defs>
<clipPath id="clip0_135_483">
<rect width="21.5888" height="21" fill="white" transform="translate(0.411255)"/>
</clipPath>
</defs>
</svg>
