<svg width="25" height="25" viewBox="0 0 25 25" fill="none" xmlns="http://www.w3.org/2000/svg">
<path d="M12.5 2.0835C10.6727 2.0835 9.15123 3.44883 8.89585 5.2085H5.33242C5.28806 5.20091 5.24314 5.19716 5.19814 5.19731C5.15926 5.19814 5.1205 5.20188 5.08217 5.2085H3.38539C3.28187 5.20703 3.17909 5.22616 3.08302 5.26476C2.98695 5.30337 2.89951 5.36068 2.82578 5.43337C2.75206 5.50606 2.69351 5.59268 2.65355 5.68819C2.6136 5.78371 2.59302 5.88621 2.59302 5.98975C2.59302 6.09328 2.6136 6.19578 2.65355 6.2913C2.69351 6.38681 2.75206 6.47343 2.82578 6.54612C2.89951 6.61881 2.98695 6.67612 3.08302 6.71473C3.17909 6.75333 3.28187 6.77246 3.38539 6.771H4.49929L5.81052 20.3279C5.95171 21.7897 7.19361 22.9168 8.66188 22.9168H16.3371C17.8054 22.9168 19.0473 21.7898 19.1884 20.3279L20.5007 6.771H21.6146C21.7181 6.77246 21.8209 6.75333 21.9169 6.71473C22.013 6.67612 22.1004 6.61881 22.1742 6.54612C22.2479 6.47343 22.3064 6.38681 22.3464 6.2913C22.3864 6.19578 22.4069 6.09328 22.4069 5.98975C22.4069 5.88621 22.3864 5.78371 22.3464 5.68819C22.3064 5.59268 22.2479 5.50606 22.1742 5.43337C22.1004 5.36068 22.013 5.30337 21.9169 5.26476C21.8209 5.22616 21.7181 5.20703 21.6146 5.2085H19.9188C19.8359 5.19505 19.7514 5.19505 19.6686 5.2085H16.1041C15.8487 3.44883 14.3272 2.0835 12.5 2.0835ZM12.5 3.646C13.4787 3.646 14.2816 4.3065 14.5111 5.2085H10.4889C10.7183 4.3065 11.5213 3.646 12.5 3.646ZM6.06789 6.771H18.931L17.633 20.1774C17.5679 20.8519 17.0145 21.3543 16.3371 21.3543H8.66188C7.98536 21.3543 7.43097 20.851 7.3659 20.1774L6.06789 6.771ZM10.6649 9.36397C10.4578 9.36721 10.2606 9.45248 10.1164 9.60106C9.97217 9.74964 9.89284 9.94938 9.89581 10.1564V17.9689C9.89435 18.0724 9.91347 18.1752 9.95208 18.2713C9.99068 18.3674 10.048 18.4548 10.1207 18.5285C10.1934 18.6022 10.28 18.6608 10.3755 18.7007C10.471 18.7407 10.5735 18.7613 10.6771 18.7613C10.7806 18.7613 10.8831 18.7407 10.9786 18.7007C11.0741 18.6608 11.1607 18.6022 11.2334 18.5285C11.3061 18.4548 11.3634 18.3674 11.402 18.2713C11.4406 18.1752 11.4598 18.0724 11.4583 17.9689V10.1564C11.4598 10.0518 11.4403 9.94804 11.4009 9.85116C11.3616 9.75427 11.3032 9.66627 11.2292 9.59237C11.1552 9.51847 11.0671 9.46018 10.9702 9.42094C10.8732 9.38171 10.7694 9.36234 10.6649 9.36397ZM14.3107 9.36397C14.1037 9.36721 13.9064 9.45248 13.7622 9.60106C13.618 9.74964 13.5387 9.94938 13.5416 10.1564V17.9689C13.5402 18.0724 13.5593 18.1752 13.5979 18.2713C13.6365 18.3674 13.6938 18.4548 13.7665 18.5285C13.8392 18.6022 13.9258 18.6608 14.0213 18.7007C14.1169 18.7407 14.2194 18.7613 14.3229 18.7613C14.4264 18.7613 14.5289 18.7407 14.6244 18.7007C14.72 18.6608 14.8066 18.6022 14.8793 18.5285C14.952 18.4548 15.0093 18.3674 15.0479 18.2713C15.0865 18.1752 15.1056 18.0724 15.1041 17.9689V10.1564C15.1056 10.0518 15.0861 9.94804 15.0468 9.85116C15.0074 9.75427 14.949 9.66627 14.875 9.59237C14.801 9.51847 14.713 9.46018 14.616 9.42094C14.5191 9.38171 14.4153 9.36234 14.3107 9.36397Z" fill="#5C5C5C"/>
</svg>
