<svg width="11" height="14" viewBox="0 0 11 14" fill="none" xmlns="http://www.w3.org/2000/svg">
<path d="M5.5 14C8.25 11.2 11 8.69276 11 5.6C11 2.50721 8.53757 0 5.5 0C2.46244 0 0 2.50721 0 5.6C0 8.69276 2.75 11.2 5.5 14Z" fill="#FF6A91"/>
<path d="M5.5 8C6.88075 8 8 6.88075 8 5.5C8 4.11929 6.88075 3 5.5 3C4.11925 3 3 4.11929 3 5.5C3 6.88075 4.11925 8 5.5 8Z" fill="#FF6A91"/>
<path d="M6.02659 3.24C6.14926 3.24 6.24793 3.26667 6.32259 3.32C6.40259 3.37333 6.44259 3.46133 6.44259 3.584V8.672C6.44259 8.78933 6.40259 8.87467 6.32259 8.928C6.24259 8.98133 6.14926 9.008 6.04259 9.008C5.93593 9.008 5.84259 8.98133 5.76259 8.928C5.68259 8.87467 5.64259 8.78933 5.64259 8.672V4.184L4.44259 4.92C4.34126 4.97867 4.24526 4.98933 4.15459 4.952C4.06393 4.91467 3.99193 4.85067 3.93859 4.76C3.89593 4.67467 3.87993 4.58667 3.89059 4.496C3.90659 4.4 3.96259 4.32533 4.05859 4.272L5.49059 3.416C5.59726 3.35733 5.69326 3.31467 5.77859 3.288C5.86393 3.256 5.94659 3.24 6.02659 3.24Z" fill="#F5F5F5"/>
<path d="M5.5 14C8.25 11.2 11 8.69276 11 5.6C11 2.50721 8.53757 0 5.5 0C2.46244 0 0 2.50721 0 5.6C0 8.69276 2.75 11.2 5.5 14Z" fill="#FF6A91"/>
<path d="M5.5 8C6.88075 8 8 6.88075 8 5.5C8 4.11929 6.88075 3 5.5 3C4.11925 3 3 4.11929 3 5.5C3 6.88075 4.11925 8 5.5 8Z" fill="#FF6A91"/>
<path d="M5.49059 3.192C5.77326 3.192 6.02393 3.23467 6.24259 3.32C6.46659 3.4 6.65326 3.50933 6.80259 3.648C6.95726 3.78667 7.07459 3.94933 7.15459 4.136C7.23459 4.31733 7.27459 4.512 7.27459 4.72V4.792C7.27459 5.032 7.20259 5.26667 7.05859 5.496C6.91993 5.72 6.70926 5.904 6.42659 6.048C6.71993 6.13333 6.96259 6.296 7.15459 6.536C7.34659 6.776 7.44259 7.056 7.44259 7.376V7.472C7.44259 7.70133 7.39726 7.91467 7.30659 8.112C7.22126 8.304 7.09593 8.46933 6.93059 8.608C6.76526 8.74667 6.56259 8.856 6.32259 8.936C6.08793 9.016 5.81859 9.056 5.51459 9.056C5.20526 9.056 4.92793 9.016 4.68259 8.936C4.44259 8.856 4.23726 8.74667 4.06659 8.608C3.90126 8.46933 3.77326 8.304 3.68259 8.112C3.59726 7.91467 3.55459 7.70133 3.55459 7.472V7.376C3.55459 7.216 3.58126 7.06667 3.63459 6.928C3.68793 6.784 3.75993 6.65333 3.85059 6.536C3.94126 6.41867 4.04793 6.32 4.17059 6.24C4.29326 6.15467 4.42659 6.09067 4.57059 6.048C4.29326 5.91467 4.07993 5.73333 3.93059 5.504C3.78659 5.26933 3.71459 5.032 3.71459 4.792V4.72C3.71459 4.512 3.75193 4.31733 3.82659 4.136C3.90659 3.94933 4.02126 3.78667 4.17059 3.648C4.31993 3.50933 4.50393 3.4 4.72259 3.32C4.94659 3.23467 5.20259 3.192 5.49059 3.192ZM5.49859 3.896C5.20526 3.896 4.96793 3.97333 4.78659 4.128C4.61059 4.28267 4.52259 4.496 4.52259 4.768V4.816C4.52259 4.96 4.54926 5.088 4.60259 5.2C4.65593 5.30667 4.72526 5.4 4.81059 5.48C4.90126 5.55467 5.00526 5.61333 5.12259 5.656C5.24526 5.69333 5.37326 5.712 5.50659 5.712C5.77859 5.712 6.00793 5.63467 6.19459 5.48C6.38126 5.32533 6.47459 5.104 6.47459 4.816V4.768C6.47459 4.496 6.38659 4.28267 6.21059 4.128C6.03459 3.97333 5.79726 3.896 5.49859 3.896ZM5.50659 6.416C5.35193 6.416 5.20526 6.43733 5.06659 6.48C4.93326 6.51733 4.81326 6.576 4.70659 6.656C4.60526 6.736 4.52259 6.83733 4.45859 6.96C4.39993 7.08267 4.37059 7.224 4.37059 7.384V7.432C4.37059 7.704 4.47193 7.92533 4.67459 8.096C4.87726 8.26667 5.15459 8.352 5.50659 8.352C5.85859 8.352 6.13326 8.26667 6.33059 8.096C6.52793 7.92533 6.62659 7.704 6.62659 7.432V7.384C6.62659 7.224 6.59726 7.08533 6.53859 6.968C6.47993 6.84533 6.39993 6.744 6.29859 6.664C6.20259 6.584 6.08526 6.52267 5.94659 6.48C5.81326 6.43733 5.66659 6.416 5.50659 6.416Z" fill="#F5F5F5"/>
</svg>
