<svg width="11" height="14" viewBox="0 0 11 14" fill="none" xmlns="http://www.w3.org/2000/svg">
<path d="M5.5 14C8.25 11.2 11 8.69276 11 5.6C11 2.50721 8.53757 0 5.5 0C2.46244 0 0 2.50721 0 5.6C0 8.69276 2.75 11.2 5.5 14Z" fill="#FF6A91"/>
<path d="M5.5 8C6.88075 8 8 6.88075 8 5.5C8 4.11929 6.88075 3 5.5 3C4.11925 3 3 4.11929 3 5.5C3 6.88075 4.11925 8 5.5 8Z" fill="#FF6A91"/>
<path d="M6.02659 3.24C6.14926 3.24 6.24793 3.26667 6.32259 3.32C6.40259 3.37333 6.44259 3.46133 6.44259 3.584V8.672C6.44259 8.78933 6.40259 8.87467 6.32259 8.928C6.24259 8.98133 6.14926 9.008 6.04259 9.008C5.93593 9.008 5.84259 8.98133 5.76259 8.928C5.68259 8.87467 5.64259 8.78933 5.64259 8.672V4.184L4.44259 4.92C4.34126 4.97867 4.24526 4.98933 4.15459 4.952C4.06393 4.91467 3.99193 4.85067 3.93859 4.76C3.89593 4.67467 3.87993 4.58667 3.89059 4.496C3.90659 4.4 3.96259 4.32533 4.05859 4.272L5.49059 3.416C5.59726 3.35733 5.69326 3.31467 5.77859 3.288C5.86393 3.256 5.94659 3.24 6.02659 3.24Z" fill="#F5F5F5"/>
<path d="M5.5 14C8.25 11.2 11 8.69276 11 5.6C11 2.50721 8.53757 0 5.5 0C2.46244 0 0 2.50721 0 5.6C0 8.69276 2.75 11.2 5.5 14Z" fill="#FF6A91"/>
<path d="M5.5 8C6.88075 8 8 6.88075 8 5.5C8 4.11929 6.88075 3 5.5 3C4.11925 3 3 4.11929 3 5.5C3 6.88075 4.11925 8 5.5 8Z" fill="#FF6A91"/>
<path d="M3.82454 2.96C3.93187 2.96 4.01821 2.98333 4.08354 3.03C4.15354 3.07667 4.18854 3.15367 4.18854 3.261V7.713C4.18854 7.81567 4.15354 7.89033 4.08354 7.937C4.01354 7.98367 3.93187 8.007 3.83854 8.007C3.74521 8.007 3.66354 7.98367 3.59354 7.937C3.52354 7.89033 3.48854 7.81567 3.48854 7.713V3.786L2.43854 4.43C2.34987 4.48133 2.26587 4.49067 2.18654 4.458C2.10721 4.42533 2.04421 4.36933 1.99754 4.29C1.96021 4.21533 1.94621 4.13833 1.95554 4.059C1.96954 3.975 2.01854 3.90967 2.10254 3.863L3.35554 3.114C3.44887 3.06267 3.53287 3.02533 3.60754 3.002C3.68221 2.974 3.75454 2.96 3.82454 2.96ZM7.635 2.918C8.265 2.918 8.72 3.12333 9 3.534C9.28467 3.94467 9.427 4.53733 9.427 5.312V5.655C9.427 6.42967 9.28467 7.02233 9 7.433C8.72 7.84367 8.265 8.049 7.635 8.049C7.005 8.049 6.54767 7.84367 6.263 7.433C5.983 7.02233 5.843 6.42967 5.843 5.655V5.312C5.843 4.53733 5.983 3.94467 6.263 3.534C6.54767 3.12333 7.005 2.918 7.635 2.918ZM7.635 3.576C7.42967 3.576 7.257 3.611 7.117 3.681C6.977 3.751 6.865 3.86067 6.781 4.01C6.697 4.15467 6.63633 4.339 6.599 4.563C6.56633 4.787 6.55 5.05533 6.55 5.368V5.599C6.55 5.91167 6.56633 6.18 6.599 6.404C6.63633 6.628 6.697 6.81467 6.781 6.964C6.865 7.10867 6.977 7.216 7.117 7.286C7.257 7.356 7.42967 7.391 7.635 7.391C7.84033 7.391 8.013 7.356 8.153 7.286C8.293 7.216 8.405 7.10867 8.489 6.964C8.573 6.81467 8.63133 6.628 8.664 6.404C8.70133 6.18 8.72 5.91167 8.72 5.599V5.368C8.72 5.05533 8.70133 4.787 8.664 4.563C8.63133 4.339 8.573 4.15467 8.489 4.01C8.405 3.86067 8.293 3.751 8.153 3.681C8.013 3.611 7.84033 3.576 7.635 3.576Z" fill="#F5F5F5"/>
</svg>
