<svg width="11" height="14" viewBox="0 0 11 14" fill="none" xmlns="http://www.w3.org/2000/svg">
<path d="M5.5 14C8.25 11.2 11 8.69276 11 5.6C11 2.50721 8.53757 0 5.5 0C2.46244 0 0 2.50721 0 5.6C0 8.69276 2.75 11.2 5.5 14Z" fill="#FF6A91"/>
<path d="M5.5 8C6.88075 8 8 6.88075 8 5.5C8 4.11929 6.88075 3 5.5 3C4.11925 3 3 4.11929 3 5.5C3 6.88075 4.11925 8 5.5 8Z" fill="#FF6A91"/>
<path d="M6.02659 3.24C6.14926 3.24 6.24793 3.26667 6.32259 3.32C6.40259 3.37333 6.44259 3.46133 6.44259 3.584V8.672C6.44259 8.78933 6.40259 8.87467 6.32259 8.928C6.24259 8.98133 6.14926 9.008 6.04259 9.008C5.93593 9.008 5.84259 8.98133 5.76259 8.928C5.68259 8.87467 5.64259 8.78933 5.64259 8.672V4.184L4.44259 4.92C4.34126 4.97867 4.24526 4.98933 4.15459 4.952C4.06393 4.91467 3.99193 4.85067 3.93859 4.76C3.89593 4.67467 3.87993 4.58667 3.89059 4.496C3.90659 4.4 3.96259 4.32533 4.05859 4.272L5.49059 3.416C5.59726 3.35733 5.69326 3.31467 5.77859 3.288C5.86393 3.256 5.94659 3.24 6.02659 3.24Z" fill="#F5F5F5"/>
<path d="M5.5 14C8.25 11.2 11 8.69276 11 5.6C11 2.50721 8.53757 0 5.5 0C2.46244 0 0 2.50721 0 5.6C0 8.69276 2.75 11.2 5.5 14Z" fill="#FF6A91"/>
<path d="M5.5 8C6.88075 8 8 6.88075 8 5.5C8 4.11929 6.88075 3 5.5 3C4.11925 3 3 4.11929 3 5.5C3 6.88075 4.11925 8 5.5 8Z" fill="#FF6A91"/>
<path d="M5.79459 3.192C6.05593 3.192 6.29593 3.21867 6.51459 3.272C6.73326 3.32533 6.91726 3.39467 7.06659 3.48C7.15726 3.53867 7.21326 3.61067 7.23459 3.696C7.26126 3.776 7.25326 3.86133 7.21059 3.952C7.16793 4.048 7.10393 4.112 7.01859 4.144C6.93859 4.176 6.84526 4.17067 6.73859 4.128C6.59459 4.05867 6.44259 4.008 6.28259 3.976C6.12259 3.93867 5.94926 3.92 5.76259 3.92C4.91459 3.92 4.44793 4.58133 4.36259 5.904C4.49593 5.696 4.69059 5.536 4.94659 5.424C5.20259 5.30667 5.47193 5.248 5.75459 5.248C6.03193 5.248 6.27993 5.29067 6.49859 5.376C6.72259 5.46133 6.91193 5.584 7.06659 5.744C7.22126 5.904 7.33859 6.096 7.41859 6.32C7.50393 6.544 7.54659 6.79467 7.54659 7.072V7.2C7.54659 7.47733 7.49859 7.73067 7.40259 7.96C7.31193 8.184 7.17859 8.37867 7.00259 8.544C6.83193 8.704 6.62393 8.82933 6.37859 8.92C6.13859 9.01067 5.87193 9.056 5.57859 9.056C4.92259 9.056 4.42393 8.848 4.08259 8.432C3.74126 8.016 3.57059 7.416 3.57059 6.632V6.408C3.57059 5.784 3.62659 5.26667 3.73859 4.856C3.85059 4.44533 4.00526 4.11733 4.20259 3.872C4.39993 3.62133 4.63459 3.44533 4.90659 3.344C5.17859 3.24267 5.47459 3.192 5.79459 3.192ZM5.59459 5.952C5.39726 5.952 5.22393 5.98133 5.07459 6.04C4.92526 6.09867 4.79993 6.17867 4.69859 6.28C4.59726 6.38133 4.51993 6.50133 4.46659 6.64C4.41859 6.77333 4.39459 6.91467 4.39459 7.064V7.128C4.39459 7.496 4.49859 7.78933 4.70659 8.008C4.91459 8.22133 5.19993 8.328 5.56259 8.328C5.93593 8.328 6.22926 8.22933 6.44259 8.032C6.65593 7.83467 6.76259 7.54667 6.76259 7.168V7.112C6.76259 6.33867 6.37326 5.952 5.59459 5.952Z" fill="#F5F5F5"/>
</svg>
