<svg width="11" height="14" viewBox="0 0 11 14" fill="none" xmlns="http://www.w3.org/2000/svg">
<path d="M5.5 14C8.25 11.2 11 8.69276 11 5.6C11 2.50721 8.53757 0 5.5 0C2.46244 0 0 2.50721 0 5.6C0 8.69276 2.75 11.2 5.5 14Z" fill="#FF6A91"/>
<path d="M5.5 8C6.88075 8 8 6.88075 8 5.5C8 4.11929 6.88075 3 5.5 3C4.11925 3 3 4.11929 3 5.5C3 6.88075 4.11925 8 5.5 8Z" fill="#FF6A91"/>
<path d="M6.02659 3.24C6.14926 3.24 6.24793 3.26667 6.32259 3.32C6.40259 3.37333 6.44259 3.46133 6.44259 3.584V8.672C6.44259 8.78933 6.40259 8.87467 6.32259 8.928C6.24259 8.98133 6.14926 9.008 6.04259 9.008C5.93593 9.008 5.84259 8.98133 5.76259 8.928C5.68259 8.87467 5.64259 8.78933 5.64259 8.672V4.184L4.44259 4.92C4.34126 4.97867 4.24526 4.98933 4.15459 4.952C4.06393 4.91467 3.99193 4.85067 3.93859 4.76C3.89593 4.67467 3.87993 4.58667 3.89059 4.496C3.90659 4.4 3.96259 4.32533 4.05859 4.272L5.49059 3.416C5.59726 3.35733 5.69326 3.31467 5.77859 3.288C5.86393 3.256 5.94659 3.24 6.02659 3.24Z" fill="#F5F5F5"/>
<path d="M5.5 14C8.25 11.2 11 8.69276 11 5.6C11 2.50721 8.53757 0 5.5 0C2.46244 0 0 2.50721 0 5.6C0 8.69276 2.75 11.2 5.5 14Z" fill="#FF6A91"/>
<path d="M5.5 8C6.88075 8 8 6.88075 8 5.5C8 4.11929 6.88075 3 5.5 3C4.11925 3 3 4.11929 3 5.5C3 6.88075 4.11925 8 5.5 8Z" fill="#FF6A91"/>
<path d="M5.35459 3.192C5.65859 3.192 5.92526 3.22933 6.15459 3.304C6.38393 3.37867 6.57326 3.48267 6.72259 3.616C6.87726 3.74933 6.99193 3.904 7.06659 4.08C7.14659 4.256 7.18659 4.44267 7.18659 4.64V4.68C7.18659 4.81867 7.16526 4.95467 7.12259 5.088C7.08526 5.22133 7.02659 5.34933 6.94659 5.472C6.86659 5.58933 6.76259 5.696 6.63459 5.792C6.51193 5.88267 6.36526 5.95467 6.19459 6.008C6.36526 6.03467 6.52526 6.08267 6.67459 6.152C6.82393 6.216 6.95193 6.30133 7.05859 6.408C7.17059 6.51467 7.25859 6.64533 7.32259 6.8C7.38659 6.94933 7.41859 7.12 7.41859 7.312V7.392C7.41859 7.61067 7.37593 7.82133 7.29059 8.024C7.21059 8.22667 7.08526 8.40533 6.91459 8.56C6.74926 8.70933 6.53859 8.82933 6.28259 8.92C6.03193 9.01067 5.73859 9.056 5.40259 9.056C4.76259 9.056 4.21593 8.90133 3.76259 8.592C3.66126 8.528 3.60259 8.448 3.58659 8.352C3.57059 8.25067 3.59193 8.15467 3.65059 8.064C3.70926 7.968 3.78126 7.90933 3.86659 7.888C3.95726 7.86667 4.05059 7.88533 4.14659 7.944C4.34393 8.07733 4.53859 8.176 4.73059 8.24C4.92259 8.304 5.13326 8.336 5.36259 8.336C5.58659 8.336 5.77859 8.30933 5.93859 8.256C6.09859 8.20267 6.22659 8.13333 6.32259 8.048C6.42393 7.95733 6.49593 7.85333 6.53859 7.736C6.58659 7.61867 6.61059 7.496 6.61059 7.368V7.304C6.61059 7.128 6.57859 6.98133 6.51459 6.864C6.45059 6.74667 6.36259 6.65333 6.25059 6.584C6.13859 6.50933 6.00526 6.456 5.85059 6.424C5.69593 6.392 5.52793 6.376 5.34659 6.376H4.89059C4.78926 6.376 4.71459 6.34133 4.66659 6.272C4.62393 6.20267 4.60259 6.12 4.60259 6.024C4.60259 5.928 4.62393 5.848 4.66659 5.784C4.71459 5.71467 4.78926 5.68 4.89059 5.68H5.28259C5.60793 5.68 5.87459 5.60533 6.08259 5.456C6.29593 5.30667 6.40259 5.06667 6.40259 4.736V4.712C6.40259 4.46667 6.31459 4.26933 6.13859 4.12C5.96793 3.97067 5.70659 3.896 5.35459 3.896C5.13059 3.896 4.93593 3.936 4.77059 4.016C4.61059 4.096 4.46126 4.21333 4.32259 4.368C4.24793 4.44267 4.16259 4.47733 4.06659 4.472C3.97593 4.46133 3.89859 4.41867 3.83459 4.344C3.76526 4.26933 3.73326 4.18933 3.73859 4.104C3.74393 4.01333 3.77593 3.93067 3.83459 3.856C3.98926 3.664 4.19459 3.50667 4.45059 3.384C4.71193 3.256 5.01326 3.192 5.35459 3.192Z" fill="#F5F5F5"/>
</svg>
