<svg width="11" height="14" viewBox="0 0 11 14" fill="none" xmlns="http://www.w3.org/2000/svg">
<path d="M5.5 14C8.25 11.2 11 8.69276 11 5.6C11 2.50721 8.53757 0 5.5 0C2.46244 0 0 2.50721 0 5.6C0 8.69276 2.75 11.2 5.5 14Z" fill="#FFD43D"/>
<path d="M5.5 8C6.88075 8 8 6.88075 8 5.5C8 4.11929 6.88075 3 5.5 3C4.11925 3 3 4.11929 3 5.5C3 6.88075 4.11925 8 5.5 8Z" fill="#FFD43D"/>
<path d="M6.02659 3.24C6.14926 3.24 6.24793 3.26667 6.32259 3.32C6.40259 3.37333 6.44259 3.46133 6.44259 3.584V8.672C6.44259 8.78933 6.40259 8.87467 6.32259 8.928C6.24259 8.98133 6.14926 9.008 6.04259 9.008C5.93593 9.008 5.84259 8.98133 5.76259 8.928C5.68259 8.87467 5.64259 8.78933 5.64259 8.672V4.184L4.44259 4.92C4.34126 4.97867 4.24526 4.98933 4.15459 4.952C4.06393 4.91467 3.99193 4.85067 3.93859 4.76C3.89593 4.67467 3.87993 4.58667 3.89059 4.496C3.90659 4.4 3.96259 4.32533 4.05859 4.272L5.49059 3.416C5.59726 3.35733 5.69326 3.31467 5.77859 3.288C5.86393 3.256 5.94659 3.24 6.02659 3.24Z" fill="#F5F5F5"/>
<path d="M5.5 14C8.25 11.2 11 8.69276 11 5.6C11 2.50721 8.53757 0 5.5 0C2.46244 0 0 2.50721 0 5.6C0 8.69276 2.75 11.2 5.5 14Z" fill="#FFD43D"/>
<path d="M5.5 8C6.88075 8 8 6.88075 8 5.5C8 4.11929 6.88075 3 5.5 3C4.11925 3 3 4.11929 3 5.5C3 6.88075 4.11925 8 5.5 8Z" fill="#FFD43D"/>
<path d="M5.45859 3.192C5.76259 3.192 6.02393 3.22933 6.24259 3.304C6.46659 3.37867 6.65326 3.48267 6.80259 3.616C6.95193 3.744 7.06126 3.896 7.13059 4.072C7.20526 4.248 7.24259 4.43467 7.24259 4.632V4.712C7.24259 5.016 7.17859 5.296 7.05059 5.552C6.92259 5.808 6.72259 6.07733 6.45059 6.36L4.61059 8.296H7.21859C7.31459 8.296 7.38393 8.33067 7.42659 8.4C7.47459 8.464 7.49859 8.54133 7.49859 8.632C7.49859 8.72267 7.47459 8.80267 7.42659 8.872C7.38393 8.936 7.31459 8.968 7.21859 8.968H4.13859C3.93059 8.968 3.78126 8.93333 3.69059 8.864C3.59993 8.79467 3.55459 8.68533 3.55459 8.536C3.55459 8.46667 3.57326 8.4 3.61059 8.336C3.64793 8.272 3.70926 8.19467 3.79459 8.104L5.74659 6.04C5.89059 5.89067 6.00526 5.76 6.09059 5.648C6.18126 5.53067 6.25326 5.42133 6.30659 5.32C6.35993 5.21867 6.39459 5.12 6.41059 5.024C6.43193 4.928 6.44259 4.82667 6.44259 4.72V4.68C6.44259 4.44533 6.35993 4.25867 6.19459 4.12C6.03459 3.98133 5.79459 3.912 5.47459 3.912C5.20793 3.912 4.98393 3.968 4.80259 4.08C4.62126 4.18667 4.45859 4.344 4.31459 4.552C4.25593 4.632 4.18126 4.68 4.09059 4.696C4.00526 4.70667 3.91993 4.68267 3.83459 4.624C3.74926 4.56533 3.69326 4.49067 3.66659 4.4C3.64526 4.30933 3.66393 4.21867 3.72259 4.128C3.89326 3.86133 4.11993 3.64 4.40259 3.464C4.69059 3.28267 5.04259 3.192 5.45859 3.192Z" fill="#F5F5F5"/>
</svg>
