<svg width="11" height="14" viewBox="0 0 11 14" fill="none" xmlns="http://www.w3.org/2000/svg">
<path d="M5.5 14C8.25 11.2 11 8.69276 11 5.6C11 2.50721 8.53757 0 5.5 0C2.46244 0 0 2.50721 0 5.6C0 8.69276 2.75 11.2 5.5 14Z" fill="#FFD43D"/>
<path d="M5.5 8C6.88075 8 8 6.88075 8 5.5C8 4.11929 6.88075 3 5.5 3C4.11925 3 3 4.11929 3 5.5C3 6.88075 4.11925 8 5.5 8Z" fill="#FFD43D"/>
<path d="M6.02659 3.24C6.14926 3.24 6.24793 3.26667 6.32259 3.32C6.40259 3.37333 6.44259 3.46133 6.44259 3.584V8.672C6.44259 8.78933 6.40259 8.87467 6.32259 8.928C6.24259 8.98133 6.14926 9.008 6.04259 9.008C5.93593 9.008 5.84259 8.98133 5.76259 8.928C5.68259 8.87467 5.64259 8.78933 5.64259 8.672V4.184L4.44259 4.92C4.34126 4.97867 4.24526 4.98933 4.15459 4.952C4.06393 4.91467 3.99193 4.85067 3.93859 4.76C3.89593 4.67467 3.87993 4.58667 3.89059 4.496C3.90659 4.4 3.96259 4.32533 4.05859 4.272L5.49059 3.416C5.59726 3.35733 5.69326 3.31467 5.77859 3.288C5.86393 3.256 5.94659 3.24 6.02659 3.24Z" fill="#F5F5F5"/>
<path d="M5.5 14C8.25 11.2 11 8.69276 11 5.6C11 2.50721 8.53757 0 5.5 0C2.46244 0 0 2.50721 0 5.6C0 8.69276 2.75 11.2 5.5 14Z" fill="#FFD43D"/>
<path d="M5.5 8C6.88075 8 8 6.88075 8 5.5C8 4.11929 6.88075 3 5.5 3C4.11925 3 3 4.11929 3 5.5C3 6.88075 4.11925 8 5.5 8Z" fill="#FFD43D"/>
<path d="M6.42659 3.304C6.51193 3.36267 6.56793 3.43733 6.59459 3.528C6.62126 3.61333 6.59726 3.70933 6.52259 3.816L4.25859 7.088H6.19459V5.624C6.19459 5.50667 6.23459 5.42133 6.31459 5.368C6.39459 5.31467 6.48526 5.288 6.58659 5.288C6.69326 5.288 6.78659 5.31467 6.86659 5.368C6.94659 5.42133 6.98659 5.50667 6.98659 5.624V7.088H7.57059C7.67193 7.088 7.74126 7.12 7.77859 7.184C7.82126 7.248 7.84259 7.32533 7.84259 7.416C7.84259 7.50667 7.82126 7.584 7.77859 7.648C7.74126 7.712 7.67193 7.744 7.57059 7.744H6.98659V8.672C6.98659 8.78933 6.94659 8.87467 6.86659 8.928C6.78659 8.98133 6.69326 9.008 6.58659 9.008C6.48526 9.008 6.39459 8.98133 6.31459 8.928C6.23459 8.87467 6.19459 8.78933 6.19459 8.672V7.744H3.81859C3.63193 7.744 3.49859 7.712 3.41859 7.648C3.33859 7.584 3.29859 7.48533 3.29859 7.352C3.29859 7.29867 3.30926 7.24533 3.33059 7.192C3.35193 7.13333 3.41326 7.02933 3.51459 6.88L5.93059 3.4C5.99459 3.30933 6.07193 3.25867 6.16259 3.248C6.25326 3.232 6.34126 3.25067 6.42659 3.304Z" fill="#F5F5F5"/>
</svg>
