<svg width="11" height="14" viewBox="0 0 11 14" fill="none" xmlns="http://www.w3.org/2000/svg">
<path d="M5.5 14C8.25 11.2 11 8.69276 11 5.6C11 2.50721 8.53757 0 5.5 0C2.46244 0 0 2.50721 0 5.6C0 8.69276 2.75 11.2 5.5 14Z" fill="#FFD43D"/>
<path d="M5.5 8C6.88075 8 8 6.88075 8 5.5C8 4.11929 6.88075 3 5.5 3C4.11925 3 3 4.11929 3 5.5C3 6.88075 4.11925 8 5.5 8Z" fill="#FFD43D"/>
<path d="M6.02659 3.24C6.14926 3.24 6.24793 3.26667 6.32259 3.32C6.40259 3.37333 6.44259 3.46133 6.44259 3.584V8.672C6.44259 8.78933 6.40259 8.87467 6.32259 8.928C6.24259 8.98133 6.14926 9.008 6.04259 9.008C5.93593 9.008 5.84259 8.98133 5.76259 8.928C5.68259 8.87467 5.64259 8.78933 5.64259 8.672V4.184L4.44259 4.92C4.34126 4.97867 4.24526 4.98933 4.15459 4.952C4.06393 4.91467 3.99193 4.85067 3.93859 4.76C3.89593 4.67467 3.87993 4.58667 3.89059 4.496C3.90659 4.4 3.96259 4.32533 4.05859 4.272L5.49059 3.416C5.59726 3.35733 5.69326 3.31467 5.77859 3.288C5.86393 3.256 5.94659 3.24 6.02659 3.24Z" fill="#F5F5F5"/>
<path d="M5.5 14C8.25 11.2 11 8.69276 11 5.6C11 2.50721 8.53757 0 5.5 0C2.46244 0 0 2.50721 0 5.6C0 8.69276 2.75 11.2 5.5 14Z" fill="#FFD43D"/>
<path d="M5.5 8C6.88075 8 8 6.88075 8 5.5C8 4.11929 6.88075 3 5.5 3C4.11925 3 3 4.11929 3 5.5C3 6.88075 4.11925 8 5.5 8Z" fill="#FFD43D"/>
<path d="M6.95459 3.28C7.15726 3.28 7.30126 3.31467 7.38659 3.384C7.47193 3.45333 7.51459 3.56267 7.51459 3.712C7.51459 3.74933 7.51193 3.78667 7.50659 3.824C7.50126 3.856 7.49059 3.896 7.47459 3.944C7.45859 3.98667 7.43726 4.04 7.41059 4.104C7.38393 4.168 7.34926 4.25067 7.30659 4.352L5.29059 8.8C5.24259 8.912 5.16793 8.97867 5.06659 9C4.97059 9.016 4.87726 9.00267 4.78659 8.96C4.69593 8.91733 4.62659 8.856 4.57859 8.776C4.53593 8.696 4.54126 8.59467 4.59459 8.472L6.66659 3.968H3.74659C3.65059 3.968 3.57859 3.93333 3.53059 3.864C3.48793 3.79467 3.46659 3.71467 3.46659 3.624C3.46659 3.53333 3.48793 3.45333 3.53059 3.384C3.57859 3.31467 3.65059 3.28 3.74659 3.28H6.95459Z" fill="#F5F5F5"/>
</svg>
