<svg width="11" height="14" viewBox="0 0 11 14" fill="none" xmlns="http://www.w3.org/2000/svg">
<path d="M5.5 14C8.25 11.2 11 8.69276 11 5.6C11 2.50721 8.53757 0 5.5 0C2.46244 0 0 2.50721 0 5.6C0 8.69276 2.75 11.2 5.5 14Z" fill="#00D99B"/>
<path d="M5.5 8C6.88075 8 8 6.88075 8 5.5C8 4.11929 6.88075 3 5.5 3C4.11925 3 3 4.11929 3 5.5C3 6.88075 4.11925 8 5.5 8Z" fill="#00D99B"/>
<path d="M6.02659 3.24C6.14926 3.24 6.24793 3.26667 6.32259 3.32C6.40259 3.37333 6.44259 3.46133 6.44259 3.584V8.672C6.44259 8.78933 6.40259 8.87467 6.32259 8.928C6.24259 8.98133 6.14926 9.008 6.04259 9.008C5.93593 9.008 5.84259 8.98133 5.76259 8.928C5.68259 8.87467 5.64259 8.78933 5.64259 8.672V4.184L4.44259 4.92C4.34126 4.97867 4.24526 4.98933 4.15459 4.952C4.06393 4.91467 3.99193 4.85067 3.93859 4.76C3.89593 4.67467 3.87993 4.58667 3.89059 4.496C3.90659 4.4 3.96259 4.32533 4.05859 4.272L5.49059 3.416C5.59726 3.35733 5.69326 3.31467 5.77859 3.288C5.86393 3.256 5.94659 3.24 6.02659 3.24Z" fill="#F5F5F5"/>
<path d="M5.5 14C8.25 11.2 11 8.69276 11 5.6C11 2.50721 8.53757 0 5.5 0C2.46244 0 0 2.50721 0 5.6C0 8.69276 2.75 11.2 5.5 14Z" fill="#00D99B"/>
<path d="M5.5 8C6.88075 8 8 6.88075 8 5.5C8 4.11929 6.88075 3 5.5 3C4.11925 3 3 4.11929 3 5.5C3 6.88075 4.11925 8 5.5 8Z" fill="#00D99B"/>
<path d="M5.45059 3.192C6.11726 3.192 6.61859 3.4 6.95459 3.816C7.29059 4.22667 7.45859 4.824 7.45859 5.608V5.84C7.45859 6.47467 7.40526 7 7.29859 7.416C7.19726 7.832 7.05059 8.16267 6.85859 8.408C6.66659 8.648 6.43193 8.816 6.15459 8.912C5.88259 9.008 5.57593 9.056 5.23459 9.056C4.97859 9.056 4.74126 9.032 4.52259 8.984C4.30393 8.93067 4.11993 8.85867 3.97059 8.768C3.86926 8.70933 3.80793 8.64 3.78659 8.56C3.76526 8.47467 3.77593 8.384 3.81859 8.288C3.86126 8.192 3.92259 8.128 4.00259 8.096C4.08793 8.05867 4.18393 8.064 4.29059 8.112C4.43459 8.18133 4.58659 8.23467 4.74659 8.272C4.91193 8.30933 5.09059 8.328 5.28259 8.328C5.50659 8.328 5.70126 8.29333 5.86659 8.224C6.03193 8.15467 6.17059 8.04267 6.28259 7.888C6.39993 7.728 6.48793 7.52267 6.54659 7.272C6.61059 7.02133 6.65059 6.71467 6.66659 6.352C6.53326 6.56 6.33859 6.72267 6.08259 6.84C5.82659 6.952 5.55726 7.008 5.27459 7.008C4.99726 7.008 4.74659 6.96533 4.52259 6.88C4.30393 6.79467 4.11459 6.67467 3.95459 6.52C3.79993 6.36 3.67993 6.168 3.59459 5.944C3.51459 5.72 3.47459 5.46933 3.47459 5.192V5.056C3.47459 4.77867 3.52259 4.528 3.61859 4.304C3.71459 4.07467 3.84793 3.87733 4.01859 3.712C4.18926 3.54667 4.39459 3.41867 4.63459 3.328C4.87993 3.23733 5.15193 3.192 5.45059 3.192ZM5.46659 3.92C5.09326 3.92 4.79993 4.01867 4.58659 4.216C4.37326 4.41333 4.26659 4.70133 4.26659 5.08V5.144C4.26659 5.91733 4.65593 6.304 5.43459 6.304C5.63193 6.304 5.80526 6.27467 5.95459 6.216C6.10393 6.15733 6.22926 6.07733 6.33059 5.976C6.43193 5.87467 6.50659 5.75733 6.55459 5.624C6.60793 5.49067 6.63459 5.34667 6.63459 5.192V5.128C6.63459 4.74933 6.53059 4.45333 6.32259 4.24C6.11993 4.02667 5.83459 3.92 5.46659 3.92Z" fill="#F5F5F5"/>
</svg>
