<svg width="11" height="14" viewBox="0 0 11 14" fill="none" xmlns="http://www.w3.org/2000/svg">
<path d="M5.5 14C8.25 11.2 11 8.69276 11 5.6C11 2.50721 8.53757 0 5.5 0C2.46244 0 0 2.50721 0 5.6C0 8.69276 2.75 11.2 5.5 14Z" fill="#FFD43D"/>
<path d="M5.5 8C6.88075 8 8 6.88075 8 5.5C8 4.11929 6.88075 3 5.5 3C4.11925 3 3 4.11929 3 5.5C3 6.88075 4.11925 8 5.5 8Z" fill="#FFD43D"/>
<path d="M6.02659 3.24C6.14926 3.24 6.24793 3.26667 6.32259 3.32C6.40259 3.37333 6.44259 3.46133 6.44259 3.584V8.672C6.44259 8.78933 6.40259 8.87467 6.32259 8.928C6.24259 8.98133 6.14926 9.008 6.04259 9.008C5.93593 9.008 5.84259 8.98133 5.76259 8.928C5.68259 8.87467 5.64259 8.78933 5.64259 8.672V4.184L4.44259 4.92C4.34126 4.97867 4.24526 4.98933 4.15459 4.952C4.06393 4.91467 3.99193 4.85067 3.93859 4.76C3.89593 4.67467 3.87993 4.58667 3.89059 4.496C3.90659 4.4 3.96259 4.32533 4.05859 4.272L5.49059 3.416C5.59726 3.35733 5.69326 3.31467 5.77859 3.288C5.86393 3.256 5.94659 3.24 6.02659 3.24Z" fill="#F5F5F5"/>
<path d="M5.5 14C8.25 11.2 11 8.69276 11 5.6C11 2.50721 8.53757 0 5.5 0C2.46244 0 0 2.50721 0 5.6C0 8.69276 2.75 11.2 5.5 14Z" fill="#FFD43D"/>
<path d="M5.5 8C6.88075 8 8 6.88075 8 5.5C8 4.11929 6.88075 3 5.5 3C4.11925 3 3 4.11929 3 5.5C3 6.88075 4.11925 8 5.5 8Z" fill="#FFD43D"/>
<path d="M3.08519 3.24C3.20785 3.24 3.30652 3.26667 3.38119 3.32C3.46119 3.37333 3.50119 3.46133 3.50119 3.584V8.672C3.50119 8.78933 3.46119 8.87467 3.38119 8.928C3.30119 8.98133 3.20785 9.008 3.10119 9.008C2.99452 9.008 2.90119 8.98133 2.82119 8.928C2.74119 8.87467 2.70119 8.78933 2.70119 8.672V4.184L1.50119 4.92C1.39985 4.97867 1.30385 4.98933 1.21319 4.952C1.12252 4.91467 1.05052 4.85067 0.997188 4.76C0.954521 4.67467 0.938521 4.58667 0.949188 4.496C0.965188 4.4 1.02119 4.32533 1.11719 4.272L2.54919 3.416C2.65585 3.35733 2.75185 3.31467 2.83719 3.288C2.92252 3.256 3.00519 3.24 3.08519 3.24ZM7.44 3.192C8.16 3.192 8.68 3.42667 9 3.896C9.32533 4.36533 9.488 5.04267 9.488 5.928V6.32C9.488 7.20533 9.32533 7.88267 9 8.352C8.68 8.82133 8.16 9.056 7.44 9.056C6.72 9.056 6.19733 8.82133 5.872 8.352C5.552 7.88267 5.392 7.20533 5.392 6.32V5.928C5.392 5.04267 5.552 4.36533 5.872 3.896C6.19733 3.42667 6.72 3.192 7.44 3.192ZM7.44 3.944C7.20533 3.944 7.008 3.984 6.848 4.064C6.688 4.144 6.56 4.26933 6.464 4.44C6.368 4.60533 6.29867 4.816 6.256 5.072C6.21867 5.328 6.2 5.63467 6.2 5.992V6.256C6.2 6.61333 6.21867 6.92 6.256 7.176C6.29867 7.432 6.368 7.64533 6.464 7.816C6.56 7.98133 6.688 8.104 6.848 8.184C7.008 8.264 7.20533 8.304 7.44 8.304C7.67467 8.304 7.872 8.264 8.032 8.184C8.192 8.104 8.32 7.98133 8.416 7.816C8.512 7.64533 8.57867 7.432 8.616 7.176C8.65867 6.92 8.68 6.61333 8.68 6.256V5.992C8.68 5.63467 8.65867 5.328 8.616 5.072C8.57867 4.816 8.512 4.60533 8.416 4.44C8.32 4.26933 8.192 4.144 8.032 4.064C7.872 3.984 7.67467 3.944 7.44 3.944Z" fill="#F5F5F5"/>
</svg>
