<svg width="11" height="14" viewBox="0 0 11 14" fill="none" xmlns="http://www.w3.org/2000/svg">
<path d="M5.5 14C8.25 11.2 11 8.69276 11 5.6C11 2.50721 8.53757 0 5.5 0C2.46244 0 0 2.50721 0 5.6C0 8.69276 2.75 11.2 5.5 14Z" fill="#00DED1"/>
<path d="M5.5 8C6.88075 8 8 6.88075 8 5.5C8 4.11929 6.88075 3 5.5 3C4.11925 3 3 4.11929 3 5.5C3 6.88075 4.11925 8 5.5 8Z" fill="#00DED1"/>
<path d="M6.02659 3.24C6.14926 3.24 6.24793 3.26667 6.32259 3.32C6.40259 3.37333 6.44259 3.46133 6.44259 3.584V8.672C6.44259 8.78933 6.40259 8.87467 6.32259 8.928C6.24259 8.98133 6.14926 9.008 6.04259 9.008C5.93593 9.008 5.84259 8.98133 5.76259 8.928C5.68259 8.87467 5.64259 8.78933 5.64259 8.672V4.184L4.44259 4.92C4.34126 4.97867 4.24526 4.98933 4.15459 4.952C4.06393 4.91467 3.99193 4.85067 3.93859 4.76C3.89593 4.67467 3.87993 4.58667 3.89059 4.496C3.90659 4.4 3.96259 4.32533 4.05859 4.272L5.49059 3.416C5.59726 3.35733 5.69326 3.31467 5.77859 3.288C5.86393 3.256 5.94659 3.24 6.02659 3.24Z" fill="#F5F5F5"/>
<path d="M5.5 14C8.25 11.2 11 8.69276 11 5.6C11 2.50721 8.53757 0 5.5 0C2.46244 0 0 2.50721 0 5.6C0 8.69276 2.75 11.2 5.5 14Z" fill="#00DED1"/>
<path d="M5.5 8C6.88075 8 8 6.88075 8 5.5C8 4.11929 6.88075 3 5.5 3C4.11925 3 3 4.11929 3 5.5C3 6.88075 4.11925 8 5.5 8Z" fill="#00DED1"/>
<path d="M6.90659 3.28C7.00793 3.28 7.07993 3.31467 7.12259 3.384C7.16526 3.45333 7.18659 3.53333 7.18659 3.624C7.18659 3.72 7.16526 3.80267 7.12259 3.872C7.07993 3.936 7.00793 3.968 6.90659 3.968H4.73859L4.64259 5.736C4.78126 5.63467 4.94393 5.54933 5.13059 5.48C5.31726 5.40533 5.53859 5.368 5.79459 5.368C6.07193 5.368 6.31726 5.41333 6.53059 5.504C6.74393 5.59467 6.92259 5.72 7.06659 5.88C7.21593 6.03467 7.32793 6.21867 7.40259 6.432C7.48259 6.64 7.52259 6.86667 7.52259 7.112V7.2C7.52259 7.424 7.48526 7.648 7.41059 7.872C7.34126 8.09067 7.22659 8.288 7.06659 8.464C6.90659 8.64 6.69859 8.784 6.44259 8.896C6.18659 9.00267 5.87726 9.056 5.51459 9.056C5.15193 9.056 4.82659 9.016 4.53859 8.936C4.25593 8.85067 4.00526 8.736 3.78659 8.592C3.69059 8.528 3.63459 8.448 3.61859 8.352C3.60259 8.256 3.62393 8.16267 3.68259 8.072C3.81059 7.86933 3.97326 7.82933 4.17059 7.952C4.35726 8.06933 4.55726 8.16267 4.77059 8.232C4.98393 8.296 5.22926 8.328 5.50659 8.328C5.71993 8.328 5.90393 8.29867 6.05859 8.24C6.21326 8.176 6.33859 8.09333 6.43459 7.992C6.53593 7.88533 6.60793 7.76533 6.65059 7.632C6.69859 7.49333 6.72259 7.34667 6.72259 7.192V7.136C6.72259 6.768 6.62126 6.49067 6.41859 6.304C6.21593 6.11733 5.93059 6.024 5.56259 6.024C5.35459 6.024 5.16526 6.05867 4.99459 6.128C4.82393 6.19733 4.67459 6.288 4.54659 6.4C4.47726 6.45867 4.41593 6.49867 4.36259 6.52C4.31459 6.54133 4.25326 6.552 4.17859 6.552C4.07726 6.552 3.99459 6.528 3.93059 6.48C3.86659 6.432 3.83726 6.36267 3.84259 6.272L3.97859 3.896C3.98393 3.77333 3.99726 3.672 4.01859 3.592C4.04526 3.512 4.07993 3.45067 4.12259 3.408C4.17059 3.36 4.23193 3.328 4.30659 3.312C4.38126 3.29067 4.47726 3.28 4.59459 3.28H6.90659Z" fill="#F5F5F5"/>
</svg>
