<svg width="36" height="36" viewBox="0 0 36 36" fill="none" xmlns="http://www.w3.org/2000/svg">
<path d="M25.3944 2.0088C31.7304 2.0088 35.9856 7.96321 35.9856 13.5216C35.9856 24.7752 18.3168 33.9912 17.9928 33.9912C17.6688 33.9912 0.00720215 24.7752 0.00720215 13.5216C0.00720215 7.96321 4.2696 2.0088 10.6056 2.0088C14.2416 2.0088 16.6248 3.8304 18 5.4288C19.3824 3.8304 21.7584 2.0088 25.3944 2.0088Z" fill="#FF6663"/>
<path d="M28.7928 26.5032C23.8608 31.068 18.18 33.9912 18 33.9912C17.6832 33.9912 0.00720215 24.7752 0.00720215 13.5216C0.00720215 12.2976 0.216002 11.052 0.604802 9.84961C0.626402 9.77761 5.472 17.5032 12.276 21.5064C19.584 25.8048 28.8864 26.4168 28.7928 26.5032Z" fill="#E04646"/>
</svg>
