<svg width="36" height="36" viewBox="0 0 36 36" fill="none" xmlns="http://www.w3.org/2000/svg">
<path d="M22.1544 0.410396L13.9464 0.395996H13.0104L13.0032 2.916L12.96 23.2272H13.896L13.9392 2.916L22.1472 2.9304L22.104 23.2488H23.04L23.0832 2.9376L23.0904 0.417596L22.1544 0.410396Z" fill="#6D6E71"/>
<path d="M13.752 35.5896C14.9052 35.5896 15.84 34.6548 15.84 33.5016C15.84 32.3484 14.9052 31.4136 13.752 31.4136C12.5988 31.4136 11.664 32.3484 11.664 33.5016C11.664 34.6548 12.5988 35.5896 13.752 35.5896Z" fill="#58595B"/>
<path d="M22.1976 35.6112C23.3508 35.6112 24.2856 34.6764 24.2856 33.5232C24.2856 32.37 23.3508 31.4352 22.1976 31.4352C21.0444 31.4352 20.1096 32.37 20.1096 33.5232C20.1096 34.6764 21.0444 35.6112 22.1976 35.6112Z" fill="#58595B"/>
<path d="M24.1669 11.0491L11.8909 11.0213C10.193 11.0174 8.81341 12.3908 8.80955 14.0887L8.77103 31.0663C8.76718 32.7642 10.1405 34.1438 11.8384 34.1476L24.1144 34.1755C25.8124 34.1793 27.1919 32.806 27.1958 31.1081L27.2343 14.1305C27.2382 12.4326 25.8648 11.053 24.1669 11.0491Z" fill="#E5D9FE"/>
<path d="M24.1128 34.1784L11.8368 34.1496C10.1376 34.1496 8.76959 32.7672 8.76959 31.068L8.80559 15.9264V15.3504C8.80559 15.3504 11.0736 24.7608 15.3216 27.6048C19.8864 30.6576 27.2016 30.2256 27.2016 30.2256V30.5928V31.1112C27.2016 32.8104 25.8192 34.1784 24.12 34.1784H24.1128Z" fill="#9E95B5"/>
</svg>
