<svg width="36" height="36" viewBox="0 0 36 36" fill="none" xmlns="http://www.w3.org/2000/svg">
<path d="M18 36C24.9984 28.8 31.9968 22.356 31.9968 14.4C31.9968 6.444 25.7328 0 18 0C10.2672 0 4.0032 6.444 4.0032 14.4C4.0032 22.356 11.0016 28.8 18 36Z" fill="#E0FF4F"/>
<path d="M18 36C20.7 33.228 23.3928 30.564 25.6896 27.8856C25.74 27.828 17.748 27.2376 13.1976 21.8016C8.3952 16.056 7.0272 5.45759 6.948 5.56559C5.1048 8.00639 4.0032 11.0736 4.0032 14.4C4.0032 22.356 11.0016 28.8 18 36Z" fill="#CADD40"/>
<path d="M18 20.0016C21.312 20.0016 23.9976 17.316 23.9976 14.004C23.9976 10.692 21.312 8.00639 18 8.00639C14.688 8.00639 12.0024 10.692 12.0024 14.004C12.0024 17.316 14.688 20.0016 18 20.0016Z" fill="white"/>
<path d="M18 20.0016C19.5048 20.0016 20.8872 19.4472 21.9384 18.5256C21.9672 18.4968 18.3816 18.1872 16.0992 16.1424C13.9464 14.2128 13.0896 10.548 13.0608 10.5912C12.3912 11.5632 11.9952 12.7368 11.9952 14.004C11.9952 17.316 14.6808 20.0016 17.9928 20.0016H18Z" fill="#E7E8D4"/>
</svg>
