<svg width="36" height="36" viewBox="0 0 36 36" fill="none" xmlns="http://www.w3.org/2000/svg">
<g clip-path="url(#clip0_242_580)">
<path d="M6.3072 31.68H29.6928C33.3936 28.512 35.7912 23.8752 35.9856 18.6768C35.9064 18.5832 35.8272 18.4968 35.7336 18.4176C34.9704 17.7912 33.6456 16.9848 31.8816 17.0064C29.16 17.0424 25.848 20.0664 23.3712 19.9008C19.5192 19.6344 18.2592 18.1944 16.596 16.0632C14.7456 13.6872 16.7976 7.0848 16.7976 7.0848C16.7976 7.0848 17.0352 5.9832 16.4016 5.472C16.2144 5.3208 16.0416 5.1984 15.8976 5.0976C15.5448 4.8528 15.1272 4.7232 14.7024 4.716C13.4136 4.716 10.2744 5.148 6.0336 8.7336C1.2888 12.744 0.2592 16.0848 0.0504 17.028C0.0288 17.1288 0.0288 17.2296 0.0216 17.3304C0.0072 17.5536 0 17.7768 0 18C0 23.4792 2.448 28.3752 6.3072 31.68Z" fill="#1F75FE"/>
<path d="M32.1984 15.732C33.1527 15.732 33.9264 14.9583 33.9264 14.004C33.9264 13.0497 33.1527 12.276 32.1984 12.276C31.2441 12.276 30.4704 13.0497 30.4704 14.004C30.4704 14.9583 31.2441 15.732 32.1984 15.732Z" fill="#1F75FE"/>
<path d="M32.9544 13.7016C33.1453 13.7016 33.3 13.5469 33.3 13.356C33.3 13.1651 33.1453 13.0104 32.9544 13.0104C32.7635 13.0104 32.6088 13.1651 32.6088 13.356C32.6088 13.5469 32.7635 13.7016 32.9544 13.7016Z" fill="#B4E8FF"/>
<path d="M35.3304 22.8672C35.208 22.932 35.0928 22.9968 34.9776 23.0832L34.5312 23.4072C33.588 24.0912 32.364 24.2352 31.284 23.796L28.3248 22.5864C27.4752 22.2408 26.5248 22.2552 25.6896 22.6224L23.1624 23.7456C22.0968 24.2208 20.8656 24.1056 19.9008 23.4504L18.576 22.5432C17.5176 21.8232 16.1352 21.7656 15.0192 22.392L12.8664 23.6088C11.8872 24.1632 10.6848 24.192 9.684 23.6808L6.408 22.0104C5.5872 21.5928 4.6224 21.528 3.7584 21.8376L0.712799 22.9176C2.772 30.168 9.252 35.5536 17.064 35.964H18.9864C26.8128 35.5536 33.3072 30.1392 35.352 22.86L35.3304 22.8672Z" fill="#C4E6FF"/>
<path d="M18 36C23.508 36 28.4328 33.5232 31.7376 29.628C31.5792 29.592 31.428 29.5416 31.2768 29.484L28.3176 28.2744C27.468 27.9288 26.5176 27.9432 25.6824 28.3104L23.1552 29.4336C22.0896 29.9088 20.8584 29.7936 19.8936 29.1384L18.5688 28.2312C17.5104 27.5112 16.128 27.4536 15.012 28.08L12.8592 29.2968C11.88 29.8512 10.6776 29.88 9.6768 29.3688L6.4008 27.6984C5.58 27.2808 4.6152 27.216 3.7512 27.5256L2.9304 27.8136C6.1416 32.7384 11.6928 35.9928 18.0144 35.9928L18 36Z" fill="#5396FF"/>
</g>
<defs>
<clipPath id="clip0_242_580">
<rect width="36" height="36" fill="white"/>
</clipPath>
</defs>
</svg>
