<svg width="36" height="36" viewBox="0 0 36 36" fill="none" xmlns="http://www.w3.org/2000/svg">
<g clip-path="url(#clip0_488_760)">
<path d="M27.6336 3.65041H8.3664C7.57111 3.65041 6.9264 4.29512 6.9264 5.09041V34.56C6.9264 35.3553 7.57111 36 8.3664 36H27.6336C28.4289 36 29.0736 35.3553 29.0736 34.56V5.09041C29.0736 4.29512 28.4289 3.65041 27.6336 3.65041Z" fill="#00E8A6"/>
<path fill-rule="evenodd" clip-rule="evenodd" d="M26.5752 36H8.3664C7.5744 36 6.9264 35.352 6.9264 34.56V14.832C6.9264 14.832 9.972 25.9056 15.264 29.124C21.024 32.6304 26.5752 36 26.5752 36Z" fill="#03C28C"/>
<path d="M29.1312 1.87199H6.876C6.08071 1.87199 5.436 2.5167 5.436 3.31199V4.25519C5.436 5.05048 6.08071 5.69519 6.876 5.69519H29.1312C29.9265 5.69519 30.5712 5.05048 30.5712 4.25519V3.31199C30.5712 2.5167 29.9265 1.87199 29.1312 1.87199Z" fill="#03C28C"/>
<path d="M15.3144 26.352H20.6784C21.4704 26.352 22.1184 27 22.1184 27.792V36H13.8744V27.792C13.8744 27 14.5224 26.352 15.3144 26.352Z" fill="white"/>
<path d="M12.4632 8.7336H10.9224C10.5248 8.7336 10.2024 9.05595 10.2024 9.4536V10.9944C10.2024 11.392 10.5248 11.7144 10.9224 11.7144H12.4632C12.8608 11.7144 13.1832 11.392 13.1832 10.9944V9.4536C13.1832 9.05595 12.8608 8.7336 12.4632 8.7336Z" fill="white"/>
<path d="M18.7704 8.7336H17.2296C16.832 8.7336 16.5096 9.05595 16.5096 9.4536V10.9944C16.5096 11.392 16.832 11.7144 17.2296 11.7144H18.7704C19.168 11.7144 19.4904 11.392 19.4904 10.9944V9.4536C19.4904 9.05595 19.168 8.7336 18.7704 8.7336Z" fill="white"/>
<path d="M25.0776 8.7336H23.5368C23.1392 8.7336 22.8168 9.05595 22.8168 9.4536V10.9944C22.8168 11.392 23.1392 11.7144 23.5368 11.7144H25.0776C25.4752 11.7144 25.7976 11.392 25.7976 10.9944V9.4536C25.7976 9.05595 25.4752 8.7336 25.0776 8.7336Z" fill="white"/>
<path d="M12.4632 13.8384H10.9224C10.5248 13.8384 10.2024 14.1607 10.2024 14.5584V16.0992C10.2024 16.4968 10.5248 16.8192 10.9224 16.8192H12.4632C12.8608 16.8192 13.1832 16.4968 13.1832 16.0992V14.5584C13.1832 14.1607 12.8608 13.8384 12.4632 13.8384Z" fill="white"/>
<path d="M18.7704 13.8384H17.2296C16.832 13.8384 16.5096 14.1607 16.5096 14.5584V16.0992C16.5096 16.4968 16.832 16.8192 17.2296 16.8192H18.7704C19.168 16.8192 19.4904 16.4968 19.4904 16.0992V14.5584C19.4904 14.1607 19.168 13.8384 18.7704 13.8384Z" fill="white"/>
<path d="M25.0776 13.8384H23.5368C23.1392 13.8384 22.8168 14.1607 22.8168 14.5584V16.0992C22.8168 16.4968 23.1392 16.8192 23.5368 16.8192H25.0776C25.4752 16.8192 25.7976 16.4968 25.7976 16.0992V14.5584C25.7976 14.1607 25.4752 13.8384 25.0776 13.8384Z" fill="white"/>
<path d="M12.4632 19.0584H10.9224C10.5248 19.0584 10.2024 19.3808 10.2024 19.7784V21.3192C10.2024 21.7168 10.5248 22.0392 10.9224 22.0392H12.4632C12.8608 22.0392 13.1832 21.7168 13.1832 21.3192V19.7784C13.1832 19.3808 12.8608 19.0584 12.4632 19.0584Z" fill="white"/>
<path d="M18.7704 19.0584H17.2296C16.832 19.0584 16.5096 19.3808 16.5096 19.7784V21.3192C16.5096 21.7168 16.832 22.0392 17.2296 22.0392H18.7704C19.168 22.0392 19.4904 21.7168 19.4904 21.3192V19.7784C19.4904 19.3808 19.168 19.0584 18.7704 19.0584Z" fill="white"/>
<path d="M25.0776 19.0584H23.5368C23.1392 19.0584 22.8168 19.3808 22.8168 19.7784V21.3192C22.8168 21.7168 23.1392 22.0392 23.5368 22.0392H25.0776C25.4752 22.0392 25.7976 21.7168 25.7976 21.3192V19.7784C25.7976 19.3808 25.4752 19.0584 25.0776 19.0584Z" fill="white"/>
</g>
<defs>
<clipPath id="clip0_488_760">
<rect width="36" height="36" fill="white"/>
</clipPath>
</defs>
</svg>
