<svg width="31" height="31" viewBox="0 0 31 31" fill="none" xmlns="http://www.w3.org/2000/svg">
<path d="M2.58325 15.7634C2.58325 12.8075 2.58325 11.3296 3.25389 10.1044C3.92452 8.87919 5.14973 8.11878 7.60012 6.598L10.1835 4.99471C12.7737 3.38713 14.0689 2.58333 15.4999 2.58333C16.931 2.58333 18.2261 3.38713 20.8164 4.99471L23.3998 6.59799C25.8502 8.11878 27.0753 8.87919 27.746 10.1044C28.4166 11.3296 28.4166 12.8075 28.4166 15.7634V17.7281C28.4166 22.7667 28.4166 25.2861 26.9033 26.8513C25.3901 28.4167 22.9544 28.4167 18.0833 28.4167H12.9166C8.0454 28.4167 5.60982 28.4167 4.09653 26.8513C2.58325 25.2861 2.58325 22.7667 2.58325 17.7281V15.7634Z" stroke="#F5F5F5" stroke-width="2"/>
<path d="M19.375 23.25H11.625" stroke="#F5F5F5" stroke-width="2" stroke-linecap="round"/>
</svg>
