<svg width="39" height="39" viewBox="0 0 39 39" fill="none" xmlns="http://www.w3.org/2000/svg">
<g clip-path="url(#clip0_78_124)">
<path d="M32.9706 11.544C34.431 11.544 35.6148 10.3602 35.6148 8.8998C35.6148 7.43945 34.431 6.2556 32.9706 6.2556C31.5102 6.2556 30.3264 7.43945 30.3264 8.8998C30.3264 10.3602 31.5102 11.544 32.9706 11.544Z" fill="#1F75FE"/>
<path d="M32.9706 12.8154C30.0612 12.8154 27.7056 15.1242 27.7056 17.979V20.6154V20.6778C27.7056 22.1832 26.4888 23.4 24.9834 23.4C23.478 23.4 22.2612 22.1832 22.2612 20.6778V20.5842H22.2378C22.2378 20.514 22.2612 20.4516 22.2612 20.3892V10.803C22.2534 4.8594 17.4408 0.0545998 11.5128 0.0545998C5.5848 0.0545998 0.764397 4.8594 0.764397 10.7952V20.3814C0.764397 20.5062 0.795597 20.6232 0.803397 20.7402C1.3806 30.888 9.5082 38.9454 19.5 38.9454C29.4918 38.9454 37.6974 30.8178 38.2122 20.6076L38.2356 17.9712C38.2356 15.1164 35.88 12.8076 32.9706 12.8076V12.8154Z" fill="#1F75FE"/>
</g>
<defs>
<clipPath id="clip0_78_124">
<rect width="39" height="39" fill="white"/>
</clipPath>
</defs>
</svg>
