<svg width="16" height="16" viewBox="0 0 16 16" fill="none" xmlns="http://www.w3.org/2000/svg">
<path d="M14.7008 9.1552C14.7008 6.656 12.6752 4.6272 10.1728 4.6272C8.58562 4.6272 7.19042 5.4464 6.38082 6.6848C5.93922 6.496 5.45282 6.3872 4.94082 6.3872C2.92802 6.3872 1.29602 8.0192 1.29602 10.032C1.29602 12.0448 2.92802 13.6768 4.94082 13.6768C4.95682 13.6768 10.4992 13.6672 10.624 13.6544C12.912 13.4272 14.7008 11.4976 14.7008 9.1488V9.1552Z" fill="#E6E7E8"/>
<path d="M4.73275 5.94241C5.24475 5.94241 5.73115 6.04801 6.17275 6.24001C6.63035 5.53601 7.27995 4.96961 8.04475 4.61121C7.96155 3.33441 6.90235 2.32001 5.60315 2.32001C4.30395 2.32001 3.15515 3.41761 3.15515 4.76801C3.15515 5.27361 3.30875 5.74401 3.57115 6.13441C3.93595 6.01281 4.32315 5.94241 4.72955 5.94241H4.73275Z" fill="#FFF200"/>
</svg>
