<svg width="16" height="16" viewBox="0 0 16 16" fill="none" xmlns="http://www.w3.org/2000/svg">
<path d="M10.1514 4.28893C10.4101 4.11263 10.4537 3.78918 10.249 3.56649C10.0442 3.3438 9.66863 3.30619 9.41007 3.48249L10.1514 4.28893ZM7.80075 4.57964C7.54211 4.75594 7.49847 5.07939 7.7032 5.30208C7.90793 5.52477 8.28355 5.56238 8.54211 5.38608L7.80075 4.57964ZM7.80075 5.38608C8.05931 5.56238 8.43492 5.52477 8.63965 5.30208C8.84438 5.07939 8.80074 4.75594 8.54211 4.57964L7.80075 5.38608ZM6.93278 3.48249C6.67422 3.30619 6.29859 3.3438 6.09386 3.56649C5.88912 3.78918 5.9328 4.11263 6.1914 4.28893L6.93278 3.48249ZM7.5742 4.98286C7.5742 5.26689 7.8416 5.49714 8.17143 5.49714C8.50126 5.49714 8.76865 5.26689 8.76865 4.98286H7.5742ZM8.76865 2.51429C8.76865 2.23026 8.50126 2 8.17143 2C7.8416 2 7.5742 2.23026 7.5742 2.51429H8.76865ZM8.76865 4.98286C8.76865 4.69883 8.50126 4.46857 8.17143 4.46857C7.8416 4.46857 7.5742 4.69883 7.5742 4.98286H8.76865ZM7.5742 11.0171C7.5742 11.3012 7.8416 11.5314 8.17143 11.5314C8.50126 11.5314 8.76865 11.3012 8.76865 11.0171H7.5742ZM6.1914 11.7111C5.9328 11.8874 5.88912 12.2108 6.09386 12.4335C6.29859 12.6562 6.67422 12.6938 6.93278 12.5175L6.1914 11.7111ZM8.54211 11.4203C8.80074 11.244 8.84438 10.9206 8.63965 10.6979C8.43492 10.4752 8.05931 10.4376 7.80075 10.6139L8.54211 11.4203ZM8.54211 10.6139C8.28355 10.4376 7.90793 10.4752 7.7032 10.6979C7.49847 10.9206 7.54211 11.244 7.80075 11.4203L8.54211 10.6139ZM9.41007 12.5175C9.66863 12.6938 10.0442 12.6562 10.249 12.4335C10.4537 12.2108 10.4101 11.8874 10.1514 11.7111L9.41007 12.5175ZM8.76865 11.0171C8.76865 10.7331 8.50126 10.5029 8.17143 10.5029C7.8416 10.5029 7.5742 10.7331 7.5742 11.0171H8.76865ZM7.5742 13.4857C7.5742 13.7697 7.8416 14 8.17143 14C8.50126 14 8.76865 13.7697 8.76865 13.4857H7.5742ZM3.402 8.38983C3.09437 8.28738 2.74854 8.41911 2.62957 8.684C2.51059 8.94889 2.66354 9.2467 2.97117 9.34914L3.402 8.38983ZM4.89026 9.98823C5.19789 10.0907 5.54372 9.95895 5.66269 9.69406C5.78167 9.42917 5.62872 9.13136 5.32109 9.02891L4.89026 9.98823ZM5.69594 9.58688C5.74615 9.30615 5.52258 9.04352 5.19659 9.00025C4.8706 8.95705 4.56562 9.14953 4.51541 9.43026L5.69594 9.58688ZM4.20485 11.1665C4.15463 11.4472 4.3782 11.7099 4.7042 11.7531C5.03019 11.7963 5.33517 11.6038 5.38538 11.3231L4.20485 11.1665ZM5.40198 9.95511C5.68836 9.81419 5.78785 9.5 5.62421 9.25342C5.46056 9.00683 5.09574 8.92112 4.80937 9.06203L5.40198 9.95511ZM2.30102 10.2963C2.01464 10.4372 1.91514 10.7514 2.07879 10.998C2.24244 11.2446 2.60726 11.3303 2.89363 11.1894L2.30102 10.2963ZM4.80937 9.06203C4.52299 9.20295 4.42349 9.51714 4.58714 9.76373C4.75078 10.0103 5.1156 10.096 5.40198 9.95511L4.80937 9.06203ZM11.5335 6.93797C11.8198 6.79705 11.9194 6.48288 11.7557 6.23627C11.5921 5.98966 11.2272 5.90398 10.9409 6.04491L11.5335 6.93797ZM12.9409 7.61017C13.2485 7.71262 13.5943 7.58089 13.7133 7.316C13.8322 7.05111 13.6793 6.7533 13.3717 6.65086L12.9409 7.61017ZM11.4526 6.01176C11.145 5.90931 10.7991 6.04102 10.6802 6.30593C10.5612 6.57084 10.7142 6.86864 11.0218 6.97109L11.4526 6.01176ZM10.6469 6.41313C10.5967 6.69385 10.8202 6.95648 11.1462 6.99975C11.4723 7.04295 11.7772 6.85047 11.8275 6.56972L10.6469 6.41313ZM12.138 4.83349C12.1882 4.55277 11.9647 4.29015 11.6387 4.24691C11.3127 4.20367 11.0077 4.39619 10.9574 4.67691L12.138 4.83349ZM10.9409 6.04491C10.6545 6.18582 10.555 6.49998 10.7186 6.74658C10.8823 6.99317 11.2471 7.07888 11.5335 6.93797L10.9409 6.04491ZM14.0418 5.70367C14.3282 5.56275 14.4277 5.24859 14.2641 5.00199C14.1004 4.75538 13.7356 4.6697 13.4492 4.81062L14.0418 5.70367ZM2.97117 6.65086C2.66354 6.7533 2.51059 7.05111 2.62957 7.316C2.74854 7.58089 3.09437 7.71262 3.402 7.61017L2.97117 6.65086ZM5.32109 6.97109C5.62872 6.86864 5.78167 6.57084 5.66269 6.30593C5.54372 6.04102 5.19789 5.90931 4.89026 6.01176L5.32109 6.97109ZM4.51541 6.56972C4.56562 6.85047 4.8706 7.04295 5.19659 6.99975C5.52258 6.95648 5.74615 6.69385 5.69594 6.41313L4.51541 6.56972ZM5.38538 4.67691C5.33517 4.39619 5.03019 4.20367 4.7042 4.24691C4.3782 4.29015 4.15463 4.55277 4.20485 4.83349L5.38538 4.67691ZM4.80937 6.93797C5.09574 7.07888 5.46056 6.99317 5.62421 6.74658C5.78785 6.49998 5.68836 6.18582 5.40198 6.04491L4.80937 6.93797ZM2.89363 4.81062C2.60726 4.6697 2.24244 4.75538 2.07879 5.00199C1.91514 5.24859 2.01464 5.56275 2.30102 5.70367L2.89363 4.81062ZM5.40198 6.04491C5.1156 5.90398 4.75078 5.98966 4.58714 6.23627C4.42349 6.48288 4.52299 6.79705 4.80937 6.93797L5.40198 6.04491ZM10.9409 9.95511C11.2272 10.096 11.5921 10.0103 11.7557 9.76373C11.9194 9.51714 11.8198 9.20295 11.5335 9.06203L10.9409 9.95511ZM13.3717 9.34914C13.6793 9.2467 13.8322 8.94889 13.7133 8.684C13.5943 8.41911 13.2485 8.28738 12.9409 8.38983L13.3717 9.34914ZM11.0218 9.02891C10.7142 9.13136 10.5612 9.42917 10.6802 9.69406C10.7991 9.95895 11.145 10.0907 11.4526 9.98823L11.0218 9.02891ZM11.8275 9.43026C11.7772 9.14953 11.4723 8.95705 11.1462 9.00025C10.8202 9.04352 10.5967 9.30615 10.6469 9.58688L11.8275 9.43026ZM10.9574 11.3231C11.0077 11.6038 11.3127 11.7963 11.6387 11.7531C11.9647 11.7099 12.1882 11.4472 12.138 11.1665L10.9574 11.3231ZM11.5335 9.06203C11.2471 8.92112 10.8823 9.00683 10.7186 9.25342C10.555 9.5 10.6545 9.81419 10.9409 9.95511L11.5335 9.06203ZM13.4492 11.1894C13.7356 11.3303 14.1004 11.2446 14.2641 10.998C14.4277 10.7514 14.3282 10.4372 14.0418 10.2963L13.4492 11.1894ZM9.41007 3.48249L7.80075 4.57964L8.54211 5.38608L10.1514 4.28893L9.41007 3.48249ZM8.54211 4.57964L6.93278 3.48249L6.1914 4.28893L7.80075 5.38608L8.54211 4.57964ZM8.76865 4.98286V2.51429H7.5742V4.98286H8.76865ZM7.5742 4.98286V11.0171H8.76865V4.98286H7.5742ZM6.93278 12.5175L8.54211 11.4203L7.80075 10.6139L6.1914 11.7111L6.93278 12.5175ZM7.80075 11.4203L9.41007 12.5175L10.1514 11.7111L8.54211 10.6139L7.80075 11.4203ZM7.5742 11.0171V13.4857H8.76865V11.0171H7.5742ZM2.97117 9.34914L4.89026 9.98823L5.32109 9.02891L3.402 8.38983L2.97117 9.34914ZM4.51541 9.43026L4.20485 11.1665L5.38538 11.3231L5.69594 9.58688L4.51541 9.43026ZM4.80937 9.06203L2.30102 10.2963L2.89363 11.1894L5.40198 9.95511L4.80937 9.06203ZM5.40198 9.95511L11.5335 6.93797L10.9409 6.04491L4.80937 9.06203L5.40198 9.95511ZM13.3717 6.65086L11.4526 6.01176L11.0218 6.97109L12.9409 7.61017L13.3717 6.65086ZM11.8275 6.56972L12.138 4.83349L10.9574 4.67691L10.6469 6.41313L11.8275 6.56972ZM11.5335 6.93797L14.0418 5.70367L13.4492 4.81062L10.9409 6.04491L11.5335 6.93797ZM3.402 7.61017L5.32109 6.97109L4.89026 6.01176L2.97117 6.65086L3.402 7.61017ZM5.69594 6.41313L5.38538 4.67691L4.20485 4.83349L4.51541 6.56972L5.69594 6.41313ZM5.40198 6.04491L2.89363 4.81062L2.30102 5.70367L4.80937 6.93797L5.40198 6.04491ZM4.80937 6.93797L10.9409 9.95511L11.5335 9.06203L5.40198 6.04491L4.80937 6.93797ZM12.9409 8.38983L11.0218 9.02891L11.4526 9.98823L13.3717 9.34914L12.9409 8.38983ZM10.6469 9.58688L10.9574 11.3231L12.138 11.1665L11.8275 9.43026L10.6469 9.58688ZM10.9409 9.95511L13.4492 11.1894L14.0418 10.2963L11.5335 9.06203L10.9409 9.95511Z" fill="#38C0FF"/>
</svg>
